<?xml version="1.0" standalone="no"?>
<!DOCTYPE svg PUBLIC "-//W3C//DTD SVG 1.1//EN" "http://www.w3.org/Graphics/SVG/1.1/DTD/svg11.dtd" >
<!--
2013-9-30: Created.
-->
<svg>
<metadata>
Created by iconfont
</metadata>
<defs>

<font id="iconfont" horiz-adv-x="1024" >
  <font-face
    font-family="iconfont"
    font-weight="500"
    font-stretch="normal"
    units-per-em="1024"
    ascent="896"
    descent="-128"
  />
    <missing-glyph />
    
    <glyph glyph-name="x" unicode="x" horiz-adv-x="1001"
d="M281 543q-27 -1 -53 -1h-83q-18 0 -36.5 -6t-32.5 -18.5t-23 -32t-9 -45.5v-76h912v41q0 16 -0.5 30t-0.5 18q0 13 -5 29t-17 29.5t-31.5 22.5t-49.5 9h-133v-97h-438v97zM955 310v-52q0 -23 0.5 -52t0.5 -58t-10.5 -47.5t-26 -30t-33 -16t-31.5 -4.5q-14 -1 -29.5 -0.5
t-29.5 0.5h-32l-45 128h-439l-44 -128h-29h-34q-20 0 -45 1q-25 0 -41 9.5t-25.5 23t-13.5 29.5t-4 30v167h911zM163 247q-12 0 -21 -8.5t-9 -21.5t9 -21.5t21 -8.5q13 0 22 8.5t9 21.5t-9 21.5t-22 8.5zM316 123q-8 -26 -14 -48q-5 -19 -10.5 -37t-7.5 -25t-3 -15t1 -14.5
t9.5 -10.5t21.5 -4h37h67h81h80h64h36q23 0 34 12t2 38q-5 13 -9.5 30.5t-9.5 34.5q-5 19 -11 39h-368zM336 498v228q0 11 2.5 23t10 21.5t20.5 15.5t34 6h188q31 0 51.5 -14.5t20.5 -52.5v-227h-327z" />
    

    
    <glyph glyph-name="gerenzhongxin" unicode="&#58908;" d="M711.245824 186.58176c-8.717312-11.493376-6.5536-28.066816 4.831232-36.928512C800.144384 84.215552 848.362496-15.016192 848.362496-122.607872c0-14.57664 11.695104-26.416128 26.070016-26.416128 14.362624 0 26.046464 11.839488 26.046464 26.416128 0 124.215296-55.64416 238.717952-152.651776 314.139648C736.739328 200.214272 719.68768 197.846784 711.245824 186.58176zM150.242304-149.024c14.362624 0 26.046464 11.839488 26.046464 26.416128 0 188.778496 150.751232 342.363136 336.036864 342.363136 142.738432 0 258.855936 118.151168 258.855936 263.38816 0 145.303552-116.117504 263.514112-258.855936 263.514112s-258.855936-118.21056-258.855936-263.514112c0-96.171008 52.72576-185.340928 135.513088-231.231488C232.338432 198.264576 124.173312 46.402304 124.173312-122.607872 124.173312-137.185536 135.86944-149.024 150.242304-149.024zM512.325632 693.69728c114.00192 0 206.741504-94.45376 206.741504-210.55488 0-116.10624-92.73856-210.561024-206.741504-210.561024-113.917952 0-206.59712 94.455808-206.59712 210.561024C305.728512 599.24352 398.40768 693.69728 512.325632 693.69728z"  horiz-adv-x="1024" />

    
    <glyph glyph-name="gerenzhongxin1" unicode="&#58880;" d="M268.136412 468.604022c0 131.930775 109.181655 238.855016 243.863077 238.855016 134.690632 0 243.863077-106.924241 243.863077-238.855016 0-131.909286-109.172445-238.855016-243.863077-238.855016C377.31909 229.749006 268.136412 336.693714 268.136412 468.604022zM225.097176 468.604022c0-113.301486 68.496024-210.974016 167.119205-255.435647C226.131739 166.124943 101.372294 23.718583 83.80008-149.610044l43.249013 0c21.409612 189.679014 185.580672 337.207022 384.951419 337.207022s363.541807-147.528008 384.951419-337.207022l43.249013 0C922.635893 23.718583 797.866215 166.124943 631.782595 213.167353c98.624205 44.461631 167.119205 142.134161 167.119205 255.435647 0 155.201781-128.449487 281.006022-286.902312 281.006022S225.097176 623.805804 225.097176 468.604022z"  horiz-adv-x="1024" />

    
    <glyph glyph-name="gerenzhongxin2" unicode="&#58911;" d="M1024-212l-42.666667 0c-27.456 224.448-242.133333 405.333333-469.333333 405.333333S70.122667 12.448 42.666667-212L0-212c22.464 206.954667 168.917333 376.597333 359.402667 433.962667C261.696 274.272 192 371.552 192 492 192 664.8 342.805333 812 512 812s320-147.2 320-320c0-120.448-69.717333-217.728-167.402667-270.037333C855.061333 164.597333 1001.536-5.045333 1024-212zM789.333333 492c0 141.376-138.901333 277.333333-277.333333 277.333333S234.666667 633.376 234.666667 492s138.901333-256 277.333333-256S789.333333 350.624 789.333333 492z"  horiz-adv-x="1024" />

    
    <glyph glyph-name="shopping" unicode="&#58900;" d="M960.139 483.396l-84.302-337.207c0-62.075-50.329-112.403-112.403-112.403l-309.106 0c-62.101 0-112.402 50.328-112.402 112.403l-56.202 337.207h0.302l-56.503 168.604-140.503 0c-15.504 0-28.1 12.596-28.1 28.1 0 15.533 12.596 28.101 28.1 28.101h181.913l70.143-224.805 619.063-0zM351.283 427.195l46.843-281.006c0-31.038 25.164-56.202 56.201-56.202h309.107c31.037 0 56.202 25.164 56.202 56.202l70.251 281.006h-538.604zM454.328-22.416c31.037 0 56.201-25.164 56.201-56.201s-25.164-56.201-56.201-56.201-56.201 25.164-56.201 56.201 25.164 56.201 56.201 56.201zM735.335-22.416c31.037 0 56.201-25.164 56.201-56.201s-25.164-56.201-56.201-56.201c-31.038 0-56.202 25.164-56.202 56.201s25.164 56.201 56.202 56.201z"  horiz-adv-x="1024" />

    
    <glyph glyph-name="wode" unicode="&#58959;" d="M248.848384 323.566336c-2.44224 0-4.368384-0.3584-5.881856-0.961536 2.05312 0.622592 4.245504 0.961536 6.503424 0.961536L248.848384 323.566336 248.848384 323.566336zM923.78112 54.650624c0.067584 1.24928 0.228352 2.473984 0.49152 3.654656C923.983872 57.764608 923.830272 56.607488 923.78112 54.650624L923.78112 54.650624zM968.808448 551.433984c0.012288 0.048128 0.012288 0.109568 0.012288 0.15872l0 0.586752C968.819712 551.925504 968.819712 551.672576 968.808448 551.433984L968.808448 551.433984zM923.75552 551.507712c0-0.050176 0-0.100352 0.013312-0.154624-0.013312 0.272384-0.013312 0.548864-0.013312 0.826368L923.75552 551.507712 923.75552 551.507712zM950.928384-124.170496c-6.337536 47.193088-20.200448 92.761088-41.194496 135.438336-4.104192 8.342528-8.454144 16.544768-13.063168 24.587264-0.012288 0.024576-0.023552 0.049152-0.055296 0.073728-19.985408 33.847296-44.504064 65.275904-73.084928 93.328384l-0.012288 0.012288c-6.213632 6.096896-12.612608 12.04736-19.203072 17.818624-46.990336 41.17504-101.239808 71.711744-159.089664 90.281984 10.472448 5.801984 20.599808 12.299264 30.326784 19.497984 11.081728 8.165376 21.627904 17.234944 31.547392 27.153408 52.15232 52.160512 80.88576 121.516032 80.88576 195.283968s-28.734464 143.122432-80.88576 195.279872C655.88224 725.79456 588.090368 754.412288 515.835904 755.445504c-1.143808 0.012288-2.294784 0.024576-3.439616 0.024576-1.149952 0-2.294784-0.012288-3.437568-0.024576-72.254464-1.033216-140.053504-29.650944-191.264768-80.862208-52.151296-52.15744-80.886784-121.51296-80.886784-195.279872s28.735488-143.123456 80.886784-195.283968c9.918464-9.918464 20.46464-18.988032 31.5392-27.153408 9.728-7.19872 19.861504-13.696 30.333952-19.497984-57.849856-18.57024-112.100352-49.106944-159.090688-90.281984-6.588416-5.772288-12.99456-11.721728-19.202048-17.818624-28.604416-28.076032-53.154816-59.53024-73.152512-93.4144-4.606976-8.042496-8.957952-16.243712-13.067264-24.587264-20.995072-42.677248-34.850816-88.245248-41.194496-135.438336-2.024448-15.118336 8.582144-29.018112 23.69536-31.04768 1.242112-0.165888 2.491392-0.251904 3.71712-0.251904 1.120256 0 2.214912 0.06144 3.309568 0.202752 10.928128 2.3808 19.750912 11.2896 21.460992 22.992896 12.730368 87.353344 54.361088 166.731776 114.204672 227.178496 71.023616 71.760896 167.68512 116.861952 272.149504 117.041152l0.590848 0c104.237056-0.357376 200.6784-45.415424 271.558656-117.041152 59.838464-60.44672 101.475328-139.826176 114.204672-227.178496 1.711104-11.677696 10.497024-20.575232 21.394432-22.980608 0.023552 0 0.036864-0.012288 0.06144-0.012288 1.09568-0.142336 2.197504-0.202752 3.316736-0.202752 1.22368 0 2.466816 0.086016 3.716096 0.251904C942.35136-153.188608 952.957952-139.288832 950.928384-124.170496L950.928384-124.170496zM511.806464 258.363136c-0.560128 0-1.114112 0-1.667072 0.012288-103.074816 0.756736-194.973696 72.370176-220.090368 168.431616-0.277504 1.045504-0.55296 2.10432-0.805888 3.162112-3.933184 15.881216-6.025216 32.381952-6.025216 49.334272 0 16.951296 2.092032 33.642496 6.025216 49.800192 0.252928 1.084416 0.528384 2.153472 0.805888 3.2256 25.252864 98.465792 118.007808 176.729088 221.75744 176.729088l1.180672 0c103.744512 0 196.5056-78.26432 221.758464-176.729088 0.277504-1.072128 0.55296-2.141184 0.805888-3.2256 3.931136-16.157696 6.023168-32.848896 6.023168-49.800192 0-16.953344-2.092032-33.453056-6.023168-49.334272-0.252928-1.057792-0.529408-2.116608-0.805888-3.162112-25.116672-96.06144-117.016576-167.67488-220.096512-168.431616C513.708032 258.363136 512.759808 258.363136 511.806464 258.363136L511.806464 258.363136zM511.806464 258.363136"  horiz-adv-x="1024" />

    
    <glyph glyph-name="gouwuche" unicode="&#58895;" d="M794.337343 246.387829l-575.726394 16.931624L76.893274 617.626945l770.270205 51.354622L794.337343 246.387829zM240.791112 295.063435l525.074783-15.445784 44.304042 354.441545-686.672228-45.774533L240.791112 295.063435zM747.725746-28.385235c-44.62843 0-80.941474 36.313044-80.941474 80.941474 0 44.62843 36.313044 80.941474 80.941474 80.941474s80.941474-36.313044 80.941474-80.941474C828.666196 7.927809 792.354176-28.385235 747.725746-28.385235zM747.725746 101.120304c-26.779923 0-48.565089-21.784142-48.565089-48.565089 0-26.779923 21.784142-48.565089 48.565089-48.565089s48.565089 21.784142 48.565089 48.565089C796.289812 79.336162 774.505669 101.120304 747.725746 101.120304zM278.266631-28.385235c-44.62843 0-80.941474 36.313044-80.941474 80.941474 0 44.62843 36.313044 80.941474 80.941474 80.941474s80.941474-36.313044 80.941474-80.941474C359.207082 7.927809 322.894038-28.385235 278.266631-28.385235zM278.266631 101.120304c-26.779923 0-48.565089-21.784142-48.565089-48.565089 0-26.779923 21.784142-48.565089 48.565089-48.565089s48.565089 21.784142 48.565089 48.565089C326.830697 79.336162 305.046554 101.120304 278.266631 101.120304zM844.633866 648.857227 812.69955 654.184559 830.492798 760.926652 936.862407 796.385235 947.106726 765.668653 859.217003 736.375489ZM747.725746 157.779745 732.691331 188.077795 756.460688 247.50221 794.337343 246.387829ZM201.25363 137.360693 193.396685 166.090015 262.077927 180.077587 735.278249 180.077587 735.278249 148.355095 264.070304 148.355095Z"  horiz-adv-x="1024" />

    
    <glyph glyph-name="gouwucheshoppingcart" unicode="&#58937;" d="M874.576 538.898c-14.141 14.863-33.442 23.017-54.601 23.017h-478.3c-15.173 0-27.662-11.56-27.662-25.701s12.386-25.701 27.662-25.701h478.197c5.161 0 9.702-1.858 13.315-5.574 5.47-5.78 8.051-15.276 7.019-23.946l-43.557-231.615c-1.548-11.457-13.108-21.469-26.836-21.572l-374.672-25.701c-15.069-1.135-26.526-13.315-25.494-27.559 1.032-13.521 13.212-23.843 27.559-23.843 0.619 0 1.445 0 2.168 0.206l372.711 25.494c39.841 0 74.728 29.21 79.476 65.232l43.557 231.615c2.993 24.875-4.335 48.614-20.54 65.645zM811.202 99.303h-448.677c-11.663 0-23.327 10.012-24.875 21.985l-47.066 308.098-26.526 142.85c-4.851 37.364-40.254 66.677-80.508 66.677h-35.196c-15.173 0-27.662-11.56-27.662-25.701s12.386-25.701 27.662-25.701h35.196c11.973 0 24.256-10.115 25.907-22.707l26.63-143.469 46.86-306.859c4.851-37.364 39.841-66.677 79.682-66.677h448.574c15.379 0 27.662 11.56 27.662 25.701 0 14.347-12.283 25.804-27.662 25.804zM320-29.2c0 0 0 0 0 0 0-27.476 22.274-49.75 49.75-49.75 27.476 0 49.75 22.274 49.75 49.75 0 0 0 0 0 0 0 0 0 0 0 0 0 27.476-22.274 49.75-49.75 49.75-27.476 0-49.75-22.274-49.75-49.75s0 0 0 0zM706.748-29.2c0 0 0 0 0 0 0-27.476 22.274-49.75 49.75-49.75 27.476 0 49.75 22.274 49.75 49.75 0 0 0 0 0 0 0 0 0 0 0 0 0 27.476-22.274 49.75-49.75 49.75-27.476 0-49.75-22.274-49.75-49.75s0 0 0 0z"  horiz-adv-x="1024" />

    
    <glyph glyph-name="wode1" unicode="&#58948;" d="M248.246409 410.25599c-2.348488 0-4.199649-0.343831-5.65479-0.923022 1.973958 0.597611 4.080945 0.923022 6.257517 0.923022L248.246409 410.25599 248.246409 410.25599 248.246409 410.25599zM897.6048 151.531438c0.065492 1.203408 0.220011 2.381234 0.475837 3.518127C897.799228 154.530748 897.653919 153.411251 897.6048 151.531438L897.6048 151.531438 897.6048 151.531438zM940.923398 629.490134c0.013303 0.044002 0.013303 0.105401 0.013303 0.153496l0 0.562818C940.936701 629.965971 940.936701 629.719354 940.923398 629.490134L940.923398 629.490134 940.923398 629.490134zM897.579217 629.560742c0-0.048095 0-0.097214 0.013303-0.149403-0.013303 0.264013-0.013303 0.532119-0.013303 0.796132L897.579217 629.560742 897.579217 629.560742 897.579217 629.560742zM923.724691-20.517033c-6.095835 45.407166-19.433608 89.251743-39.632649 130.306788-3.948939 8.026814-8.136308 15.920598-12.56927 23.655769-0.013303 0.027629-0.021489 0.048095-0.052189 0.071631-19.232017 32.56365-42.822294 62.803371-70.316485 89.792049l-0.013303 0.013303c-5.977132 5.862521-12.133342 11.587919-18.475793 17.143449-45.209668 39.615253-97.402377 68.992327-153.060001 86.860277 10.075473 5.581112 19.820418 11.831466 29.179576 18.757203 10.659781 7.860015 20.805862 16.584724 30.348192 26.127054 50.178843 50.182936 77.82346 116.910687 77.82346 187.882088 0 70.975495-27.64871 137.699152-77.82346 187.883111-49.276287 49.2681-114.496707 76.803223-184.016037 77.79583-1.099031 0.00921-2.207271 0.021489-3.306302 0.021489-1.109264 0-2.208295-0.013303-3.307326-0.021489-69.515237-0.99363-134.746914-28.52773-184.016037-77.800947-50.173726-50.177819-77.82346-116.906593-77.82346-187.877995s27.649733-137.699152 77.82346-187.882088c9.53926-9.54233 19.689435-18.272155 30.345122-26.127054 9.359158-6.92676 19.10922-13.176091 29.183669-18.757203-55.659671-17.86795-107.851357-47.25014-153.061025-86.865393-6.341429-5.550413-12.503778-11.275811-18.47477-17.142425-27.522844-27.01119-51.142797-57.272401-70.383-89.87289-4.432962-7.736195-8.619308-15.628956-12.573363-23.655769-20.199041-41.055045-33.528628-84.899622-39.632649-130.306788-1.948375-14.543228 8.259104-27.916816 22.798239-29.869285 1.195222-0.157589 2.396583-0.2415 3.576455-0.2415 1.076518 0 2.131547 0.058328 3.183506 0.193405 10.515494 2.291183 19.002796 10.862395 20.648272 22.12081 12.247952 84.041068 52.302203 160.41348 109.877503 218.570018 68.333318 69.041446 161.333432 112.433722 261.836427 112.607684l0.572028 0c100.282984-0.345877 193.071274-43.694151 261.267469-112.607684 57.567113-58.156538 97.626481-134.528949 109.874433-218.570018 1.648546-11.235902 10.101055-19.794835 20.585851-22.107507 0.021489 0 0.034792-0.013303 0.057305-0.013303 1.055029-0.1361 2.115174-0.197498 3.192715-0.197498 1.173732 0 2.369977 0.083911 3.575432 0.245593C915.468656-48.43385 925.676136-35.060261 923.724691-20.517033L923.724691-20.517033 923.724691-20.517033zM501.24147 347.526297c-0.541329 0-1.072425 0-1.604544 0.008186-99.165534 0.729617-187.583283 69.629847-211.748658 162.049746-0.268106 1.006933-0.533143 2.02717-0.774643 3.043313-3.786233 15.276938-5.796006 31.153534-5.796006 47.465035 0 16.311501 2.009773 32.367175 5.796006 47.914266 0.2415 1.041726 0.50756 2.070148 0.774643 3.103688 24.297382 94.732571 113.537869 170.032558 213.354226 170.032558l1.134847 0c99.816357 0 189.059913-75.298963 213.353203-170.032558 0.26913-1.033539 0.533143-2.061962 0.778736-3.103688 3.78214-15.547091 5.791913-31.602765 5.791913-47.914266 0-16.310477-2.009773-32.18298-5.791913-47.465035-0.245593-1.016143-0.509606-2.036379-0.778736-3.043313-24.161283-92.419899-112.579031-161.320129-211.752752-162.049746C503.071142 347.526297 502.161423 347.526297 501.24147 347.526297L501.24147 347.526297 501.24147 347.526297zM501.24147 347.526297"  horiz-adv-x="1024" />

    
    <glyph glyph-name="shouye" unicode="&#58968;" d="M813.105802 372.237095c0-89.923032 0-179.87267 0-269.794679 0.002047-35.814694 6.212492-82.677001-15.452947-97.303116-17.191544-11.605316-62.818721-8.598842-89.408309-8.598842-39.004339 0-115.184369-7.045463-132.456754 16.338107-10.834766 14.669094-6.623861 50.460252-6.622838 75.188446-0.367367 64.862263-0.735757 129.74397-1.104147 194.606233-38.261419-0.36839-76.534094-0.73678-114.795513-1.106194 0-63.757093 0-127.532605 0-191.288674 0.002047-25.104771 4.490268-62.482053-6.622838-77.399811-17.298991-23.220864-92.453668-16.338107-131.352607-16.338107-26.872021 0-73.075319-3.098571-90.512457 8.598842-21.725814 14.573927-15.456017 61.491493-15.452947 97.303116 0 89.923032 0 179.87267 0 269.794679-43.897789-0.547469-99.383498-9.122775-107.069551 27.64257-6.314823 30.205952 66.030879 87.156012 82.785471 103.937211 75.419713 75.549673 150.860916 151.121859 226.28063 226.671533 17.140379 17.171078 78.371952 85.140099 99.80203 85.140099 31.16172 0 85.850274-72.084759 103.297644-89.562828 73.947176-74.076112 147.917888-148.173714 221.865063-222.248803 16.015765-16.041348 78.398558-69.590961 82.785471-88.457658C931.756109 360.811882 856.600409 371.780701 813.105802 372.237095zM243.541759 406.51376c0-123.828236 0-247.693312 0-371.520525 58.496276-0.36839 117.008924-0.73678 175.505199-1.106194 0.367367 93.976348 0.735757 187.981349 1.104147 281.957697 60.703547 0 121.42449 0 182.128037 0 0-93.607958 0-187.243545 0-280.852526 58.863642-0.36839 117.744681-0.73678 176.609347-1.106194 0 124.196627 0 248.430092 0 372.626719 34.95 0 69.911256 0 104.861256 0-19.130709 19.163455-38.267559 38.33305-57.398268 57.497529C721.500455 569.78124 616.617709 675.581891 511.766686 781.351843c-0.735757 0-1.471514 0-2.207271 0C385.209292 656.786827 260.82233 532.184971 136.472208 407.619954 172.157965 407.25054 207.854978 406.88215 243.541759 406.51376z"  horiz-adv-x="1024" />

    
    <glyph glyph-name="gouwuche-copy" unicode="&#58881;" d="M354.811 92.837c-60.163 0-108.938-48.774-108.938-108.944 0-60.161 48.772-108.938 108.938-108.938 60.166 0 108.94 48.774 108.94 108.938-0.001 60.17-48.773 108.944-108.94 108.944zM354.811-76.628c-33.424 0-60.523 27.098-60.523 60.528 0 33.42 27.098 60.517 60.523 60.517 33.424 0 60.523-27.098 60.523-60.517 0-33.429-27.098-60.528-60.523-60.528zM174.082 746.476l-25.043 145.258h-145.255v-48.421h101.013l116.868-677.854h677.85v48.417h-633.603l-13.098 75.968 646.701 69.287 121.046 338.924v48.421h-846.476zM875.305 407.55l-630.705-70.076-62.17 360.581h782.26l-89.383-290.506zM766.364 92.837c-60.163 0-108.94-48.774-108.94-108.944 0-60.161 48.774-108.938 108.94-108.938s108.94 48.774 108.94 108.938c0 60.17-48.775 108.944-108.94 108.944zM766.364-76.628c-33.427 0-60.523 27.098-60.523 60.528 0 33.424 27.095 60.519 60.523 60.519 33.424 0 60.523-27.095 60.523-60.519 0-33.429-27.098-60.528-60.523-60.528z"  horiz-adv-x="1024" />

    
    <glyph glyph-name="leimupinleifenleileibie" unicode="&#59385;" d="M320 384 192 384c-70.4 0-128-57.6-128-128l0-128c0-70.4 57.6-128 128-128l128 0c70.4 0 128 57.6 128 128l0 128C448 326.4 390.4 384 320 384zM384 128c0-35.2-28.8-64-64-64L192 64c-35.2 0-64 28.8-64 64l0 128c0 35.2 28.8 64 64 64l128 0c35.2 0 64-28.8 64-64L384 128zM768 832l-128 0C569.6 832 512 774.4 512 704l0-128c0-70.4 57.6-128 128-128l128 0c70.4 0 128 57.6 128 128L896 704C896 774.4 838.4 832 768 832zM832 576c0-35.2-28.8-64-64-64l-128 0C604.8 512 576 540.8 576 576L576 704c0 35.2 28.8 64 64 64l128 0c35.2 0 64-28.8 64-64L832 576zM768 384l-128 0c-70.4 0-128-57.6-128-128l0-128c0-70.4 57.6-128 128-128l128 0c70.4 0 128 57.6 128 128l0 128C896 326.4 838.4 384 768 384zM832 128c0-35.2-28.8-64-64-64l-128 0c-35.2 0-64 28.8-64 64l0 128c0 35.2 28.8 64 64 64l128 0c35.2 0 64-28.8 64-64L832 128zM320 832 192 832C121.6 832 64 774.4 64 704l0-128c0-70.4 57.6-128 128-128l128 0c70.4 0 128 57.6 128 128L448 704C448 774.4 390.4 832 320 832zM384 576c0-35.2-28.8-64-64-64L192 512C156.8 512 128 540.8 128 576L128 704c0 35.2 28.8 64 64 64l128 0c35.2 0 64-28.8 64-64L384 576z"  horiz-adv-x="1024" />

    
    <glyph glyph-name="fenlei" unicode="&#59010;" d="M385.297793 890.266468 96.296777 890.177919C47.927016 889.558078 8.832739 850.264565 8.832739 801.739845l0-287.894157c0.088549-48.480446 39.116415-87.707547 87.464038-88.327388l289.001016-0.088549c48.790367 0.066412 88.327388 39.736256 88.415937 88.54876l0 287.783471C473.71373 850.596623 434.132434 890.222193 385.297793 890.266468zM385.16497 469.681994l-287.783471 0c-24.439458 0-44.27438 19.834922-44.27438 44.27438l0 287.783471c0 24.439458 19.834922 44.27438 44.27438 44.27438l287.783471 0c24.439458 0 44.27438-19.834922 44.27438-44.27438l0-287.783471C429.43935 489.494779 409.604427 469.681994 385.16497 469.681994zM938.727544 890.266468 649.726528 890.177919c-48.391897-0.597704-87.464038-39.913354-87.464038-88.438074l0-287.894157c0.088549-48.480446 39.116415-87.707547 87.464038-88.327388l289.001016-0.088549c48.790367 0.066412 88.327388 39.736256 88.415937 88.54876l0 287.783471C1027.143481 850.596623 987.562185 890.222193 938.727544 890.266468zM938.594721 469.681994l-287.783471 0c-24.439458 0-44.27438 19.834922-44.27438 44.27438l0 287.783471c0 24.439458 19.834922 44.27438 44.27438 44.27438l287.783471 0c24.439458 0 44.27438-19.834922 44.27438-44.27438l0-287.783471C982.869101 489.494779 963.034179 469.681994 938.594721 469.681994zM385.297793 336.836717 96.296777 336.748168c-48.391897-0.597704-87.464038-39.913354-87.464038-88.438074l0-287.894157c0.088549-48.480446 39.116415-87.707547 87.464038-88.327388l289.001016-0.088549c48.790367 0.066412 88.327388 39.736256 88.415937 88.54876l0 287.783471C473.71373 297.166872 434.132434 336.792442 385.297793 336.836717zM385.16497-83.747757l-287.783471 0c-24.439458 0-44.27438 19.834922-44.27438 44.27438l0 287.783471c0 24.439458 19.834922 44.27438 44.27438 44.27438l287.783471 0c24.439458 0 44.27438-19.834922 44.27438-44.27438l0-287.783471C429.43935-63.934972 409.604427-83.747757 385.16497-83.747757zM938.727544 336.836717 649.726528 336.748168c-48.391897-0.597704-87.464038-39.913354-87.464038-88.438074l0-287.894157c0.088549-48.480446 39.116415-87.707547 87.464038-88.327388l289.001016-0.088549c48.790367 0.066412 88.327388 39.736256 88.415937 88.54876l0 287.783471C1027.143481 297.166872 987.562185 336.792442 938.727544 336.836717zM938.594721-83.747757l-287.783471 0c-24.439458 0-44.27438 19.834922-44.27438 44.27438l0 287.783471c0 24.439458 19.834922 44.27438 44.27438 44.27438l287.783471 0c24.439458 0 44.27438-19.834922 44.27438-44.27438l0-287.783471C982.869101-63.934972 963.034179-83.747757 938.594721-83.747757z"  horiz-adv-x="1028" />

    
    <glyph glyph-name="gouwuche1" unicode="&#59020;" d="M726.046492-35.600567c-48.511877 0-87.977727 39.466873-87.977727 87.982844 0 48.510854 39.46585 87.977727 87.977727 87.977727 48.510854 0 87.98182-39.467897 87.98182-87.977727C814.028313 3.866307 774.562463-35.600567 726.046492-35.600567L726.046492-35.600567zM726.046492 98.314399c-25.327852 0-45.937239-20.605294-45.937239-45.936215 0-25.326828 20.61041-45.932122 45.937239-45.932122 25.326828 0 45.941332 20.606317 45.941332 45.932122C771.987824 77.709105 751.373321 98.314399 726.046492 98.314399L726.046492 98.314399zM726.046492 98.314399M450.032158-35.600567c-48.511877 0-87.972611 39.466873-87.972611 87.982844 0 48.510854 39.461757 87.977727 87.972611 87.977727 48.514947 0 87.982844-39.467897 87.982844-87.977727C538.015002 3.866307 498.548128-35.600567 450.032158-35.600567L450.032158-35.600567zM450.032158 98.314399c-25.327852 0-45.932122-20.605294-45.932122-45.936215 0-25.326828 20.605294-45.932122 45.932122-45.932122 25.336038 0 45.941332 20.606317 45.941332 45.932122C495.97349 77.709105 475.36922 98.314399 450.032158 98.314399L450.032158 98.314399zM450.032158 98.314399M358.571097 231.631754l-10.67206 4.790096c-10.934027 4.934382-12.30935 13.07069-15.641235 32.734542-1.734504 10.234085-4.070712 25.1324-6.941086 44.284599-4.818749 32.112372-11.245112 76.723406-19.089777 132.603087-13.353123 95.074356-26.380834 191.163831-26.511817 192.121646l0.461511 0.063445-1.807159 5.15337c-16.369829 46.720068-36.858466 100.9379-46.442752 121.193223-24.743544-0.267083-80.44824 0.203638-166.416194 1.38044l0.573051 42.040489c61.966307-0.845251 163.41893-1.937119 174.381609-1.301645 17.996886 2.282996 25.521257-14.926968 33.482579-33.136701 5.03262-11.507078 11.438517-27.522844 19.046798-47.593971 7.814989-20.605294 15.34857-41.423435 20.075221-54.655807 217.720673-0.670266 608.175433-1.791809 619.901499-1.5104 8.126075 0.208754 15.664771-4.103458 19.638269-11.293207 5.303796-9.602705 9.885138-17.898649-52.354392-210.2884-0.596588-1.836835-59.522652-183.756117-72.166623-202.696492-4.327562-6.470365-11.010775-10.157337-18.2302-10.171664-25.939789-0.723477-362.39468-0.776689-446.89419-0.781806L358.571097 231.631754 358.571097 231.631754zM323.355037 629.232261c16.612353-122.17969 41.413202-300.019051 50.254567-352.625176 138.368394 0.01535 368.232642 0.150426 423.252747 0.588401 21.649066 52.05661 96.501868 280.109606 113.338325 350.523305C809.905412 627.75563 427.060981 628.916059 323.355037 629.232261L323.355037 629.232261zM242.706229 764.798842c1.113357 0 2.27788 0.063445 3.473101 0.24764C245.5633 764.949268 244.401848 764.867404 242.706229 764.798842L242.706229 764.798842zM242.706229 764.798842"  horiz-adv-x="1024" />

    
    <glyph glyph-name="fenlei1" unicode="&#58934;" d="M857.078085 412.291962 627.577287 412.291962c-50.705422 0-91.980437 41.259026-91.980437 91.97684L535.596849 748.76943c0 50.715415 41.274816 91.97684 91.980437 91.97684l229.500798 0c50.689632 0 91.942463-41.261425 91.942463-91.97684l0-244.500629C949.020548 453.550789 907.767717 412.291962 857.078085 412.291962zM627.577287 785.506922c-20.267259 0-36.734894-16.479827-36.734894-36.737492l0-244.500629c0-20.254667 16.467835-36.737492 36.734894-36.737492l229.500798 0c20.234281 0 36.701117 16.482825 36.701117 36.737492L893.779202 748.76943c0 20.257665-16.466835 36.737492-36.701117 36.737492L627.577287 785.506922zM386.069229 412.291962 156.568431 412.291962c-50.711418 0-91.97684 41.259026-91.97684 91.97684L64.591591 748.76943c0 50.715415 41.265422 91.97684 91.97684 91.97684l229.500798 0c50.694029 0 91.940464-41.261425 91.940464-91.97684l0-244.500629C478.009693 453.550789 436.763259 412.291962 386.069229 412.291962zM156.568431 785.506922c-20.266659 0-36.738092-16.479827-36.738092-36.737492l0-244.500629c0-20.254667 16.471233-36.737492 36.738092-36.737492l229.500798 0c20.228685 0 36.705114 16.482825 36.705114 36.737492L422.774343 748.76943c0 20.257665-16.476229 36.737492-36.705114 36.737492L156.568431 785.506922zM386.069229-67.464563 156.568431-67.464563c-50.711418 0-91.97684 41.262024-91.97684 91.978439L64.591591 269.014504c0 50.716414 41.265422 91.972443 91.97684 91.972443l229.500798 0c50.694029 0 91.940464-41.256028 91.940464-91.972443L478.009693 24.513876C478.009693-26.207735 436.763259-67.464563 386.069229-67.464563zM156.568431 305.751397c-20.266659 0-36.738092-16.485823-36.738092-36.736892L119.830339 24.513876c0-20.255267 16.471233-36.736093 36.738092-36.736093l229.500798 0c20.228685 0 36.705114 16.480826 36.705114 36.736093L422.774343 269.014504c0 20.25127-16.476229 36.736892-36.705114 36.736892L156.568431 305.751397zM751.410128-49.034259c-113.683523 0-206.185606 92.49209-206.185606 206.18061 0 113.689519 92.502084 206.182808 206.185606 206.182808 113.679525 0 206.176612-92.49309 206.176612-206.182808C957.58674 43.457832 865.089653-49.034259 751.410128-49.034259zM751.410128 308.086813c-83.224374 0-150.939263-67.705895-150.939263-150.940263 0-83.227372 67.714889-150.940263 150.939263-150.940263 83.21538 0 150.939263 67.712891 150.939263 150.940263C902.349391 240.380918 834.625508 308.086813 751.410128 308.086813z"  horiz-adv-x="1024" />

    
    <glyph glyph-name="fenlei2" unicode="&#58980;" d="M232.276992 352.57344c64.422912 0 128.856064-0.386048 193.267712 0.318464 13.750272 0.137216 27.103232-12.84096 27.058176-27.660288-0.523264-129.685504-0.340992-259.371008-0.227328-389.056512 0.011264-9.023488-2.033664-16.8192-9.375744-22.182912-3.136512-2.318336-6.875136-4.294656-10.61376-5.067776-5.02272-1.022976-10.295296-0.976896-15.455232-0.976896-125.594624-0.04608-251.189248-0.04608-376.772608-0.091136-8.966144 0-17.488896 1.204224-22.614016 9.818112-2.295808 3.863552-4.182016 8.296448-5.011456 12.704768-0.864256 4.545536-0.238592 9.36448-0.238592 14.092288-0.011264 126.93504 0.193536 253.871104-0.329728 380.807168-0.057344 15.181824 13.489152 27.751424 27.034624 27.614208C103.420928 352.187392 167.85408 352.57344 232.276992 352.57344L232.276992 352.57344zM231.640064-45.643776c55.421952 0 110.83264 0 166.243328 0 7.250944 0 9.00096 1.978368 8.988672 10.205184-0.022528 108.50304-0.045056 216.983552-0.057344 325.486592 0 3.52256 0.193536 7.068672-0.05632 10.568704-0.340992 4.614144-2.784256 7.13728-7.545856 6.908928-4.023296-0.182272-8.045568-0.386048-12.068864-0.386048-103.161856-0.022528-206.313472-0.022528-309.464064 0-3.454976 0-6.909952 0.091136-10.35264 0.249856-8.511488 0.432128-11.091968-2.137088-11.091968-10.773504 0.022528-110.457856 0.022528-220.915712 0-331.35104 0-8.727552 1.977344-10.909696 10.330112-10.909696C121.591808-45.643776 176.616448-45.643776 231.640064-45.643776L231.640064-45.643776zM231.640064-45.643776M230.504448 453.075968c-64.24064 0-128.48128 0.340992-192.710656-0.272384-13.932544-0.137216-25.762816 10.522624-25.716736 26.159104 0.386048 130.276352 0.2048 260.553728 0.238592 390.852608 0 13.705216 5.192704 22.136832 15.409152 25.091072 2.340864 0.681984 4.909056 0.818176 7.374848 0.818176C166.649856 895.74912 298.19904 895.612928 429.749248 895.976448c12.78464 0.022528 22.375424-12.16 22.46656-22.546432 0.045056-5.113856 0.045056-10.20416 0.045056-15.318016 0.011264-124.594176 0.022528-249.189376-0.011264-373.784576-0.011264-7.590912 0.136192-15.000576-4.9664-21.79584-3.898368-5.182464-8.613888-7.545856-14.318592-8.75008-2.784256-0.590848-5.716992-0.659456-8.580096-0.681984C359.757824 453.075968 295.1424 453.075968 230.504448 453.075968L230.504448 453.075968zM232.333312 852.15744l0-0.136192c-52.728832 0-105.468928-0.022528-158.209024 0-3.442688 0-6.897664 0.2048-10.35264 0.091136-4.2496-0.15872-6.772736-2.477056-7.204864-6.863872-0.238592-2.340864-0.272384-4.681728-0.272384-7.04512 0-73.593856 0.022528-147.16416 0.022528-220.756992 0-35.501056-0.05632-71.02464-0.05632-106.525696 0-9.182208 2.69312-12.022784 10.932224-12.022784 110.265344 0 220.529664 0 330.795008-0.113664 5.28384-0.022528 7.86432 2.318336 8.522752 7.341056 0.272384 2.136064 0.318464 4.318208 0.318464 6.454272 0.011264 107.730944 0 215.438336-0.011264 323.16928 0 3.136512-0.2048 6.273024-0.340992 9.409536-0.238592 5.136384-2.931712 7.068672-7.886848 7.068672C343.17824 852.133888 287.755264 852.15744 232.333312 852.15744L232.333312 852.15744zM232.333312 852.15744M757.281792 895.74912c62.513152 0 125.026304 0.022528 187.54048-0.067584 5.669888 0 11.580416 0.15872 16.965632-1.34144 7.499776-2.06848 12.522496-7.318528 13.103104-15.954944 0.56832-8.568832 1.828864-17.114112 1.841152-25.682944 0.147456-122.845184 0.374784-245.666816-0.124928-368.489472-0.068608-16.818176-3.068928-24.59136-16.512-29.86496-2.091008-0.794624-4.443136-1.317888-6.6816-1.317888-130.777088-0.04608-261.56544-0.022528-392.341504 0-15.466496 0-23.76192 8.317952-23.76192 23.773184-0.012288 131.867648-0.113664 263.712768 0.077824 395.580416 0.023552 16.545792 7.957504 23.478272 24.297472 23.614464 3.068928 0.022528 6.125568-0.249856 9.194496-0.249856C633.01632 895.726592 695.143424 895.74912 757.281792 895.74912L757.281792 895.74912zM756.032512 852.088832l0-0.091136c-51.593216 0-103.174144 0-154.755072 0-4.033536 0-8.056832-0.090112-12.080128-0.022528-5.603328 0.113664-8.705024-2.386944-8.783872-8.318976-0.012288-1.772544-0.238592-3.52256-0.238592-5.295104-0.022528-108.91264-0.033792-217.802752-0.022528-326.715392 0-9.954304 1.80736-11.840512 11.614208-12.568576 0.955392-0.067584 1.908736-0.113664 2.875392-0.113664 108.345344-0.022528 216.699904-0.045056 325.044224-0.022528 9.56928 0 12.342272 2.95424 12.342272 12.704768-0.012288 17.069056-0.04608 34.137088-0.04608 51.206144 0 91.843584 0.012288 183.66464 0.022528 275.508224 0 11.659264-1.86368 13.750272-12.01152 13.727744C865.342464 852.066304 810.691584 852.088832 756.032512 852.088832L756.032512 852.088832zM756.032512 852.088832M513.80736 137.74848c1.376256 23.683072 4.740096 46.63808 12.11392 68.842496 4.49024 13.477888 8.897536 27.183104 15.241216 39.774208 6.1696 12.251136 14.000128 23.841792 22.477824 34.569216 9.704448 12.296192 20.169728 24.206336 31.716352 34.637824 10.068992 9.091072 21.750784 16.523264 33.410048 23.523328 11.319296 6.772736 23.274496 12.613632 35.388416 17.796096 8.966144 3.818496 18.465792 6.842368 28.022784 8.546304 19.171328 3.432448 38.35392 8.272896 58.036224 5.999616 16.704512-1.932288 33.739776-3.11296 49.876992-7.499776 17.000448-4.635648 33.762304-11.38688 49.422336-19.613696 16.193536-8.546304 31.05792-19.683328 44.899328-32.228352 13.556736-12.31872 25.217024-26.160128 35.5584-41.138176 6.6816-9.659392 12.06784-20.34176 17.455104-30.865408 4.23936-8.272896 8.671232-16.704512 11.103232-25.614336 4.113408-15.023104 7.682048-30.342144 9.669632-45.797376 1.841152-14.272512 2.194432-28.93312 1.613824-43.365376-0.57856-14.773248-1.670144-29.636608-6.796288-43.841536-3.62496-10.068992-5.965824-20.591616-9.419776-30.705664-2.1248-6.204416-4.7616-12.363776-8.035328-18.023424-6.692864-11.5456-13.841408-22.842368-21.091328-34.046976-2.386944-3.703808-2.045952-6.340608 0.897024-9.273344 17.456128-17.363968 34.88768-34.751488 52.251648-52.205568 10.602496-10.636288 21.625856-20.909056 31.341568-32.342016 6.716416-7.909376 3.898368-21.886976-4.09088-28.68224-6.977536-5.909504-21.829632-5.545984-28.42112 0.909312-23.103488 22.660096-46.127104 45.410304-69.240832 68.0704-4.13696 4.045824-8.455168 7.931904-12.98944 11.478016-4.012032 3.181568-8.102912 1.636352-11.569152-1.317888-24.375296-20.682752-52.307968-33.79712-82.729984-42.433536-24.807424-7.067648-49.978368-7.294976-75.206656-6.500352-18.215936 0.590848-36.23936 4.455424-53.388288 10.546176-17.375232 6.181888-34.569216 13.546496-49.60256 24.818688-13.216768 9.931776-26.648576 19.704832-38.877184 30.841856-8.193024 7.45472-14.840832 16.840704-21.443584 25.931776-6.93248 9.545728-13.364224 19.501056-19.283968 29.751296-3.637248 6.295552-6.182912 13.341696-8.738816 20.228096-3.181568 8.568832-6.104064 17.251328-8.69376 26.023936-2.092032 7.067648-3.999744 14.272512-5.159936 21.568512C517.307392 109.929472 515.683328 123.860992 513.80736 137.74848L513.80736 137.74848zM925.196288 138.179584c0.989184 105.207808-83.024896 186.756096-178.925568 188.36992-102.218752 1.727488-192.1536-85.344256-186.993664-197.801984 4.227072-92.070912 80.434176-183.414784 193.335296-178.368512C842.30656-45.621248 924.740608 29.676544 925.196288 138.179584L925.196288 138.179584zM925.196288 138.179584"  horiz-adv-x="1024" />

    
    <glyph glyph-name="wode2" unicode="&#58951;" d="M206.278305 410.536184C203.540491 410.536184 201.37544 410.129521 199.67433 409.453659 201.982571 410.152431 204.445459 410.536184 206.977078 410.536184L206.278305 410.536184 206.278305 410.536184M963.925585 108.265396C964.000045 109.668669 964.183329 111.049032 964.475439 112.372118 964.154691 111.764988 963.982862 110.464812 963.925585 108.265396L963.925585 108.265396M1014.472061 666.665056C1014.483516 666.716605 1014.483516 666.785336 1014.483516 666.842613L1014.483516 667.501292C1014.483516 667.21491 1014.483516 666.928527 1014.472061 666.665056L1014.472061 666.665056M963.896947 666.745243C963.896947 666.687966 963.896947 666.63069 963.91413 666.573413 963.896947 666.876979 963.896947 667.191999 963.896947 667.501292L963.896947 666.745243 963.896947 666.745243M994.40239-92.734884C987.288653-39.691155 971.720912 11.531183 948.157376 59.500218 943.552349 68.876375 938.666667 78.097885 933.494602 87.141838 933.477419 87.164748 933.465964 87.193386 933.431598 87.222025 910.996409 125.265049 883.47507 160.593169 851.388798 192.12386L851.377342 192.135316C844.401069 198.991308 837.218601 205.681198 829.818483 212.170621 777.072591 258.450001 716.170532 292.775783 651.230482 313.647325 662.989339 320.171113 674.358716 327.473862 685.275609 335.561298 697.716056 344.742715 709.555101 354.937924 720.689644 366.083923 779.231914 424.712107 811.490016 502.671097 811.490016 585.590227 811.490016 668.50363 779.231914 746.462619 720.689644 805.085076 663.195534 862.647918 587.092302 894.814377 505.988836 895.977089 504.700115 895.988545 503.411395 896.005728 502.122675 896.005728 500.833954 896.005728 499.550962 895.988545 498.267969 895.977089 417.158774 894.814377 341.049815 862.647918 283.561432 805.085076 225.019163 746.462619 192.761061 668.50363 192.761061 585.5845 192.761061 502.671097 225.019163 424.712107 283.561432 366.083923 294.695976 354.932197 306.53502 344.736987 318.96974 335.561298 329.886633 327.468134 341.261738 320.165386 353.020595 313.647325 288.080545 292.770055 227.178486 258.444273 174.426866 212.164894 167.032475 205.675471 159.84428 198.991308 152.873734 192.135316 120.764551 160.575986 93.208847 125.224956 70.756474 87.13611 65.58441 78.092157 60.698728 68.876375 56.087973 59.500218 32.51871 11.525456 16.968151-39.691155 9.84296-92.740611 7.574812-109.728809 19.47686-125.353828 36.442147-127.633431 37.839693-127.822443 39.242966-127.919813 40.617601-127.919813 41.871956-127.919813 43.1034-127.851081 44.334844-127.690707 56.597734-125.015896 66.506561-115.003971 68.425322-101.847569 82.715799-3.658534 129.447663 85.566735 196.627222 153.508071 276.350326 234.170509 384.860579 284.865904 502.128402 285.066371L502.792809 285.066371C619.802888 284.665436 728.061125 234.015863 807.629582 153.508071 874.797687 85.566735 921.541005-3.658534 935.825754-101.847569 937.750243-114.969605 947.61325-124.975803 959.847501-127.679252 959.870412-127.679252 959.887595-127.690707 959.916233-127.690707 961.141949-127.851081 962.379121-127.919813 963.639203-127.919813 965.00811-127.919813 966.405656-127.822443 967.808929-127.633431 984.774217-125.353828 996.676265-109.728809 994.40239-92.734884L994.40239-92.734884M501.463995 337.245226C500.833954 337.245226 500.215368 337.245226 499.591055 337.256681 383.886879 338.110101 280.726248 418.600709 252.529047 526.578291 252.214026 527.752458 251.910461 528.943809 251.624078 530.135159 247.208063 547.982504 244.859729 566.528621 244.859729 585.5845 244.859729 604.640378 247.208063 623.404146 251.624078 641.560784 251.910461 642.780772 252.214026 643.983578 252.529047 645.186383 280.875166 755.867414 384.998042 843.838328 501.463995 843.838328L502.787081 843.838328C619.247307 843.838328 723.37591 755.867414 751.72203 645.186383 752.031323 643.983578 752.346344 642.780772 752.626998 641.560784 757.043013 623.404146 759.391348 604.640378 759.391348 585.5845 759.391348 566.528621 757.043013 547.982504 752.626998 530.135159 752.346344 528.943809 752.031323 527.752458 751.72203 526.578291 723.530557 418.600709 620.364198 338.110101 504.654294 337.256681 503.59468 337.245226 502.535065 337.245226 501.463995 337.245226L501.463995 337.245226M501.463995 337.245226 501.463995 337.245226Z"  horiz-adv-x="1024" />

    
    <glyph glyph-name="wode3" unicode="&#59292;" d="M671.985378 314.107131c72.853605 51.463708 120.433746 136.325971 120.433746 232.305297 0 156.984764-127.253922 284.237687-284.231491 284.237687-156.97657 0-284.229492-127.254122-284.229492-284.237687 0-99.322659 50.95825-186.731596 128.144518-237.55194-144.190839-62.894358-245.844717-205.100942-249.830215-371.507718l40.615063 0c4.288892 161.531881 110.562439 297.643398 256.7843 346.299809 33.439528-13.826226 70.083284-21.471642 108.517025-21.471642 41.739301 0 81.376027 8.998299 117.07922 25.158942 152.24258-45.1326 264.121126-184.162538 268.52434-349.986109l40.61906 0C930.308435 108.561891 822.818713 254.155778 671.985378 314.107131zM508.187633 302.794801c-134.548176 0-243.625822 109.073648-243.625822 243.617627 0 134.554172 109.077645 243.623623 243.625822 243.623623 134.550175 0 243.629819-109.069451 243.629819-243.623623C751.817452 411.86745 642.737808 302.794801 508.187633 302.794801z"  horiz-adv-x="1024" />

    
    <glyph glyph-name="leimupinleifenleileibie1" unicode="&#59179;" d="M315.08 344.58 157.58 344.58c-86.6 0-157.5-70.9-157.5-157.5l0-157.5c0-86.6 70.9-157.5 157.5-157.5l157.5 0c86.6 0 157.5 70.9 157.5 157.5L472.58 187.08C472.58 273.68 401.68 344.58 315.08 344.58zM393.88 29.58c0-43.3-35.4-78.8-78.8-78.8L157.58-49.22c-43.3 0-78.8 35.4-78.8 78.8L78.78 187.08c0 43.3 35.4 78.8 78.8 78.8l157.5 0c43.3 0 78.8-35.4 78.8-78.8L393.88 29.58zM866.48 895.98 708.88 895.98c-86.6 0-157.5-70.9-157.5-157.5l0-157.5c0-86.6 70.9-157.5 157.5-157.5l157.5 0c86.6 0 157.5 70.9 157.5 157.5L1023.88 738.48C1023.98 825.08 953.08 895.98 866.48 895.98zM945.28 580.88c0-43.3-35.4-78.8-78.8-78.8L708.88 502.08c-43.3 0-78.8 35.4-78.8 78.8L630.08 738.48c0 43.3 35.4 78.8 78.8 78.8l157.5 0c43.3 0 78.8-35.4 78.8-78.8L945.18 580.88zM866.48 344.58 708.88 344.58c-86.6 0-157.5-70.9-157.5-157.5l0-157.5c0-86.6 70.9-157.5 157.5-157.5l157.5 0c86.6 0 157.5 70.9 157.5 157.5L1023.88 187.08C1023.98 273.68 953.08 344.58 866.48 344.58zM945.28 29.58c0-43.3-35.4-78.8-78.8-78.8L708.88-49.22c-43.3 0-78.8 35.4-78.8 78.8L630.08 187.08c0 43.3 35.4 78.8 78.8 78.8l157.5 0c43.3 0 78.8-35.4 78.8-78.8L945.18 29.58zM315.08 895.98 157.58 895.98c-86.6 0-157.5-70.9-157.5-157.5l0-157.5c0-86.6 70.9-157.5 157.5-157.5l157.5 0c86.6 0 157.5 70.9 157.5 157.5L472.58 738.48C472.58 825.08 401.68 895.98 315.08 895.98zM393.88 580.88c0-43.3-35.4-78.8-78.8-78.8L157.58 502.08c-43.3 0-78.8 35.4-78.8 78.8L78.78 738.48c0 43.3 35.4 78.8 78.8 78.8l157.5 0c43.3 0 78.8-35.4 78.8-78.8L393.88 580.88z"  horiz-adv-x="1024" />

    
    <glyph glyph-name="gouwuche2" unicode="&#58969;" d="M47.453659 846.04878C74.619931 846.04878 94.562357 830.744128 97.623967 807.782057L192.522455 81.058719C199.125094 31.538238 241.707612-3.121951 292.214634-3.121951L924.097561-3.121951 924.097561 46.829268 292.214634 46.829268C266.010856 46.829268 245.223581 63.749142 242.044326 87.593552L147.145838 814.31689C140.570715 863.631002 98.392929 896 47.453659 896L0 896 0 846.04878 47.453659 846.04878ZM974.04878 696.195122C1008.778837 696.195122 1030.350528 670.610093 1022.324773 640.112223L912.462853 230.627992C905.962736 209.558805 888.202902 196.682927 864.156098 196.682927L224.780488 196.682927 224.780488 146.731707 864.156098 146.731707C909.954877 146.731707 947.20278 173.736436 960.456529 216.811125L1070.600562 627.284203C1087.278302 690.658491 1040.49443 746.146341 974.04878 746.146341L149.853659 746.146341 149.853659 696.195122 974.04878 696.195122ZM399.609756-128 399.609756-78.04878 299.707317-78.04878 299.707317-128 399.609756-128ZM849.170732-128 849.170732-78.04878 749.268293-78.04878 749.268293-128 849.170732-128Z"  horiz-adv-x="1074" />

    
    <glyph glyph-name="gouwuche3" unicode="&#58882;" d="M355.728 69.616c-26.554 0-48.061-21.507-48.061-48.061s21.507-48.061 48.061-48.061 48.061 21.507 48.061 48.061-21.507 48.061-48.061 48.061z m412.756 0c-26.554 0-48.061-21.507-48.061-48.061s21.507-48.061 48.061-48.061 48.061 21.507 48.061 48.061-21.507 48.061-48.061 48.061z m73.253 46.619H351.918c-19.974 0-39.496 7.668-54.971 21.592-15.492 13.939-25.371 32.746-27.815 52.955l-0.004 0.034-51.159 360.168-29.084 168.179-0.058 0.417c-2.246 16.221-17.087 29.925-32.408 29.925H118c-13.807 0-25 11.193-25 25s11.193 25 25 25h38.418c40.122 0 75.994-31.859 81.871-72.613l29.074-168.122 51.404-361.965c0.994-8.221 5.121-15.959 11.622-21.809 6.28-5.65 13.925-8.762 21.528-8.762h489.819c13.808 0 25-11.193 25-25s-11.191-24.999-24.999-24.999zM389.532 238.731c-12.972 0-23.937 10.019-24.906 23.163-1.015 13.77 9.325 25.755 23.094 26.771l408.873 30.139 0.59 0.016c16.205 0.428 30.604 12.955 32.781 28.521l0.132 0.841 47.394 271.179c0.016 0.086 0.024 0.151 0.032 0.216 1.395 11.716-1.94 23.753-8.703 31.425-4.64 5.25-10.736 8.037-17.613 8.037H329.09c-13.807 0-25 11.193-25 25s11.193 25 25 25h522.116c21.316 0 40.886-8.861 55.102-24.952 16.142-18.311 23.936-44.625 20.865-70.411a53.075 53.075 0 0 0-0.433-2.946l-47.323-270.777c-5.732-39.299-40.099-69.724-80.271-71.097L391.396 238.8a25.4 25.4 0 0 0-1.864-0.069z"  horiz-adv-x="1024" />

    
    <glyph glyph-name="wode4" unicode="&#58886;" d="M943.516957 76.555736c-23.588823 55.770847-57.353962 105.852871-100.35894 148.85585-43.001979 43.003978-93.085003 76.768118-148.85585 100.358941a466.284536 466.284536 0 0 1-57.50088 20.010822c29.194692 13.985188 56.120651 32.971582 79.687487 56.539417 54.621489 54.620489 84.702686 127.242923 84.702685 204.488774s-30.080197 149.868285-84.702685 204.488774C661.868285 865.919803 589.24685 896.000999 512 896.000999S362.132715 865.920802 307.511226 811.300313c-54.620489-54.621489-84.701686-127.242923-84.701686-204.489774s30.081197-149.868285 84.701686-204.489773c23.567835-23.567835 50.492795-42.554229 79.687487-56.539417a466.255553 466.255553 0 0 1-57.498881-20.010822c-55.769847-23.589823-105.852871-57.353962-148.85685-100.358941-43.001979-43.001979-76.768118-93.085003-100.35794-148.85585-24.426356-57.75174-36.812437-119.087478-36.812437-182.301167 0-12.284138 9.959437-22.243575 22.243575-22.243575s22.243575 9.959437 22.243575 22.243575c0 229.488809 183.337589 416.95809 411.235286 423.648352 4.187661-0.177901 8.388314-0.284841 12.604959-0.28484s8.417298 0.10694 12.604959 0.28484c227.898697-6.690263 411.235287-194.159544 411.235286-423.648352 0-12.284138 9.959437-22.243575 22.243575-22.243575s22.243575 9.959437 22.243575 22.243575c0.000999 63.213689-12.384082 124.549427-36.810438 182.301167zM267.29669 606.810539c0 134.930629 109.773681 244.70431 244.704309 244.70431 134.929629 0 244.70331-109.773681 244.703311-244.70431 0-130.763956-103.099409-237.899111-232.279251-244.390485-4.133691 0.10694-8.275377 0.163908-12.426058 0.163909s-8.292368-0.055969-12.426059-0.163909C370.396099 368.910429 267.29669 476.045584 267.29669 606.810539z"  horiz-adv-x="1024" />

    
    <glyph glyph-name="shouye1" unicode="&#59012;" d="M512 705.536c8.192 0 16.384-3.072 21.504-9.216L845.824 384c-37.888 0-68.608-30.72-68.608-68.608v-233.472c0-11.264-9.216-20.48-20.48-20.48H618.496c-11.264 0-20.48 9.216-20.48 20.48V223.232c0 33.792-27.648 61.44-61.44 61.44h-47.104c-33.792 0-61.44-27.648-61.44-61.44v-141.312c0-11.264-9.216-20.48-20.48-20.48H267.264c-11.264 0-20.48 9.216-20.48 20.48V316.416c0 37.888-30.72 68.608-68.608 68.608l312.32 312.32c5.12 5.12 13.312 8.192 21.504 8.192m0 30.72c-15.36 0-31.744-6.144-43.008-18.432L147.456 397.312c-16.384-16.384-5.12-44.032 18.432-44.032h12.288c21.504 0 37.888-17.408 37.888-37.888v-233.472c0-28.672 22.528-51.2 51.2-51.2h140.288c28.672 0 51.2 22.528 51.2 51.2V223.232c0 17.408 13.312 30.72 30.72 30.72h47.104c17.408 0 30.72-13.312 30.72-30.72v-141.312c0-28.672 22.528-51.2 51.2-51.2h137.216c28.672 0 51.2 22.528 51.2 51.2V316.416c0 21.504 17.408 37.888 37.888 37.888h12.288c22.528 0 33.792 27.648 18.432 44.032L555.008 718.848c-11.264 11.264-27.648 17.408-43.008 17.408z"  horiz-adv-x="1024" />

    
    <glyph glyph-name="gouwuche4" unicode="&#58929;" d="M1000.21217 260.534555L1191.373814 697.768084a24.778989 24.778989 0 0 1-22.730593 34.690585H347.632703L316.642447 876.176808a24.778989 24.778989 0 0 1-24.250371 19.823192H24.778989a24.778989 24.778989 0 1 1 0-49.557979h247.591663l154.554817-716.542298a130.370523 130.370523 0 1 1 157.792605-127.397045A129.181132 129.181132 0 0 1 555.974447 83.249145h284.132412a129.181132 129.181132 0 0 1-28.743627-80.68039 130.436601 130.436601 0 1 1 130.4366 130.436601h-3.17171v0.462541H476.549526v2.048396L452.629541 245.667161h524.852036a24.778989 24.778989 0 0 1 22.730593 14.867394z m-545.864619-338.976576A80.878622 80.878622 0 1 0 535.226173 2.436601a80.944699 80.944699 0 0 0-80.878622-80.878622z m568.264826 80.878622A80.878622 80.878622 0 1 0 941.6016 83.249145a80.944699 80.944699 0 0 0 80.812545-80.812544z m-574.211783 292.788539L358.931922 682.966768h771.849003l-169.488288-387.741628z"  horiz-adv-x="1193" />

    
    <glyph glyph-name="fenlei3" unicode="&#58909;" d="M394.214898 841.929524L123.24751 841.929524c-32.55444 0-58.944484-26.391067-58.944484-58.944484l0-270.967388c0-32.55444 26.391067-58.944484 58.944484-58.944484l270.967388 0c32.55444 0 58.944484 26.391067 58.944484 58.944484L453.159382 782.98504C453.159382 815.53948 426.769338 841.929524 394.214898 841.929524zM386.644479 554.58412c0-21.588691-17.639752-39.089273-39.399335-39.089273L166.125063 515.494846c-21.759583 0-39.399335 17.501606-39.399335 39.089273L126.725728 734.278735c0 21.588691 17.639752 39.089273 39.399335 39.089273l181.120081 0c21.759583 0 39.399335-17.501606 39.399335-39.089273L386.644479 554.58412zM394.214898 323.139887L123.24751 323.139887c-32.55444 0-58.944484-26.391067-58.944484-58.945507l0-270.967388c0-32.55444 26.391067-58.944484 58.944484-58.944484l270.967388 0c32.55444 0 58.944484 26.390044 58.944484 58.944484L453.159382 264.19438C453.159382 296.747797 426.769338 323.139887 394.214898 323.139887zM386.644479 35.794483c0-21.589714-17.639752-39.089273-39.399335-39.089273L166.125063-3.29479c-21.759583 0-39.399335 17.500583-39.399335 39.089273L126.725728 215.488075c0 21.587668 17.639752 39.089273 39.399335 39.089273l181.120081 0c21.759583 0 39.399335-17.502629 39.399335-39.089273L386.644479 35.794483zM911.470599 323.139887L640.503211 323.139887c-32.55444 0-58.944484-26.391067-58.944484-58.945507l0-270.967388c0-32.55444 26.390044-58.944484 58.944484-58.944484l270.968411 0c32.55444 0 58.944484 26.390044 58.944484 58.944484L970.416106 264.19438C970.415083 296.747797 944.025039 323.139887 911.470599 323.139887zM903.90018 35.794483c0-21.589714-17.639752-39.089273-39.399335-39.089273L683.379741-3.29479c-21.759583 0-39.399335 17.500583-39.399335 39.089273L643.980405 215.488075c0 21.587668 17.639752 39.089273 39.399335 39.089273l181.121104 0c21.759583 0 39.399335-17.502629 39.399335-39.089273L903.90018 35.794483zM911.470599 841.929524L640.504234 841.929524c-32.55444 0-58.945507-26.391067-58.945507-58.944484l0-270.967388c0-32.55444 26.391067-58.944484 58.945507-58.944484l270.967388 0c32.55444 0 58.944484 26.391067 58.944484 58.944484L970.416106 782.98504C970.415083 815.53948 944.025039 841.929524 911.470599 841.929524zM903.90018 554.58412c0-21.588691-17.639752-39.089273-39.399335-39.089273L683.380764 515.494846c-21.760606 0-39.400359 17.501606-39.400359 39.089273L643.980405 734.278735c0 21.588691 17.639752 39.089273 39.400359 39.089273l181.120081 0c21.759583 0 39.399335-17.501606 39.399335-39.089273L903.90018 554.58412z"  horiz-adv-x="1024" />

    
    <glyph glyph-name="shouye2" unicode="&#58952;" d="M972.736 393.301333L512.704 853.333333 52.672 393.301333a21.269333 21.269333 0 0 1 0.085333-30.101333l1.493334-1.493333a21.184 21.184 0 0 1 30.101333-0.085334l428.352 428.373334 428.373333-428.352a21.248 21.248 0 0 1 30.101334 0.085333l1.493333 1.493333a21.269333 21.269333 0 0 1 0.064 30.08zM848.341333 362.666667a21.333333 21.333333 0 0 1-21.269333-21.482667v-322.026667c0-52.437333-26.474667-61.781333-45.290667-61.781333h-146.752V177.493333c0 24.064 0 57.173333-43.029333 57.173334h-170.24c-42.709333 0-42.709333-32.298667-42.709333-57.173334v-220.117333h-148.522667c-42.666667 0-43.477333 61.781333-43.477333 61.781333V341.184a21.354667 21.354667 0 1 1-42.666667 0.234667v-353.941334C144.341333-75.861333 211.946667-85.333333 211.946667-85.333333h209.728V192h170.666666v-277.333333H813.653333c37.866667 0 55.957333 42.709333 55.957334 72.810666V341.418667a21.205333 21.205333 0 0 1-21.269334 21.248z"  horiz-adv-x="1024" />

    
    <glyph glyph-name="fenlei4" unicode="&#58883;" d="M865.104-61.973H645.378c-54.963 0-99.676 45.043-99.676 100.415V260.08c0 55.363 44.714 100.397 99.676 100.397h219.709c54.962 0 99.677-45.034 99.677-100.397v-221.64c0.01-26.786-10.347-51.981-29.137-70.94-18.835-19.012-43.878-29.474-70.523-29.474zM645.378 324.038c-34.865 0-63.236-28.691-63.236-63.956v-221.64c0-35.274 28.37-63.974 63.236-63.974h219.726c16.85 0 32.704 6.637 44.643 18.682 11.984 12.09 18.576 28.176 18.576 45.293V260.08c0 35.266-28.371 63.956-63.236 63.956h-219.71z m-256.55-386.011h-219.7c-54.963 0-99.677 45.043-99.677 100.415V260.08c0 55.363 44.714 100.397 99.677 100.397h219.7c54.963 0 99.685-45.034 99.685-100.397v-221.64c0.001-55.371-44.722-100.414-99.685-100.414z m-219.7 386.011c-34.865 0-63.236-28.691-63.236-63.956v-221.64c0-35.274 28.37-63.974 63.236-63.974h219.7c34.874 0 63.245 28.7 63.245 63.975V260.08c0 35.266-28.371 63.956-63.245 63.956h-219.7z m219.7 89.508h-219.7c-54.963 0-99.677 45.035-99.677 100.398V735.582c0 55.363 44.714 100.406 99.677 100.406h219.7c54.963 0 99.685-45.043 99.685-100.406v-221.638c0.001-55.363-44.722-100.398-99.685-100.398z m-219.7 386.002c-34.865 0-63.236-28.691-63.236-63.966v-221.638c0-35.267 28.37-63.957 63.236-63.957h219.7c34.874 0 63.245 28.691 63.245 63.957V735.582c0 35.275-28.371 63.966-63.245 63.966h-219.7z m690.745-376.812H650.609c-52.827 0-95.798 43.291-95.798 96.492v211.08c0 53.21 42.97 96.49 95.798 96.49h209.247c52.827 0 95.797-43.28 95.797-96.49v-211.08c0.01-25.747-9.937-49.963-27.997-68.183-18.106-18.256-42.17-28.309-67.783-28.309zM650.609 790.358c-32.73 0-59.358-26.939-59.358-60.052v-211.08c0-33.112 26.627-60.05 59.358-60.05h209.264c15.818 0 30.702 6.227 41.902 17.525 11.245 11.344 17.437 26.45 17.437 42.526v211.08c0 33.113-26.627 60.052-59.357 60.052H650.609z"  horiz-adv-x="1024" />

    
    <glyph glyph-name="fenlei5" unicode="&#58907;" d="M437.248 443.072H84.416c-11.328 0-20.416 9.152-20.416 20.416V810.944c0 11.264 9.088 20.416 20.416 20.416h352.832c11.264 0 20.416-9.216 20.416-20.416v-347.456c0-11.264-9.152-20.416-20.416-20.416z m-332.352 40.896h311.936V790.4H104.896v-306.432zM437.248-31.04H84.416C73.088-31.04 64-21.888 64-10.624V336.64c0 11.392 9.088 20.48 20.416 20.48h352.832c11.264 0 20.416-9.152 20.416-20.48v-347.264c0-11.264-9.152-20.416-20.416-20.416z m-332.352 40.896h311.936v306.24H104.896v-306.24zM905.088 443.072H552.32c-11.392 0-20.48 9.216-20.48 20.416V810.944c0 11.264 9.152 20.416 20.48 20.416h352.768c11.328 0 20.416-9.216 20.416-20.416v-347.456c0-11.264-9.152-20.416-20.416-20.416z m-332.352 40.896h311.808V790.4H572.736v-306.432zM716.928-33.472c-112.512 0-204.032 91.584-204.032 203.904 0 112.64 91.52 204.032 204.032 204.032 112.384 0 203.904-91.456 203.904-204.032 0-112.384-91.52-203.904-203.904-203.904z m0 366.976c-89.984 0-163.072-73.28-163.072-163.136 0-89.6 73.088-162.88 163.072-162.88 89.728 0 162.944 73.28 162.944 162.88 0 89.856-73.216 163.136-162.944 163.136zM939.456-63.36a20.758 20.758 0 0 0-14.08 5.504l-90.752 85.952c-8.192 7.68-8.576 20.8-0.896 28.864 7.872 8.32 20.864 8.704 28.928 0.832l90.88-85.76c8.256-7.872 8.576-20.928 0.896-29.12-3.968-4.16-9.344-6.272-14.976-6.272z"  horiz-adv-x="1024" />

    
    <glyph glyph-name="shouye3" unicode="&#59079;" d="M934.237 345.362a17.78 17.78 0 0 0-12.146 4.793L511.995 733.602 101.892 351.311a17.667 17.667 0 0 0-12.097-4.775 17.866 17.866 0 0 0-12.989 5.635 17.648 17.648 0 0 0-4.776 12.692 17.615 17.615 0 0 0 5.652 12.378l434.347 404.931L946.35 376.051c3.471-3.239 5.471-7.635 5.619-12.361a17.57 17.57 0 0 0-4.775-12.708c-3.389-3.637-8-5.62-12.957-5.62zM585.973-14.172V211.422H438.026v-225.594H190.801v363.17c0 9.783 7.982 17.749 17.782 17.749 9.783 0 17.749-7.966 17.749-17.749v-327.705h176.181V246.885h218.975v-225.593h176.197V348.998c0 9.783 7.967 17.749 17.75 17.749 9.799 0 17.764-7.966 17.764-17.749v-363.17H585.973z"  horiz-adv-x="1024" />

    
    <glyph glyph-name="cart" unicode="&#58884;" d="M995.648 685.778c-17.325 22.561-44.739 39.718-75.199 39.718h-758.181l-7.846 59.703c-5.73 44.017-43.44 79.042-91.699 79.042h-43.046c-12.758 0-23.102-10.578-23.102-23.346s10.343-23.346 23.102-23.346h43.046c19.085 0 42.562-10.799 45.878-36.295l88.215-675.042c5.865-45.009 44.423-73.107 91.696-73.107h585.957c12.771 0 23.102 9.911 23.102 22.681s-10.332 22.678-23.102 22.678h-585.957c-24.139 0-43.012 13.396-45.878 35.44l-7.44 56.611h583.707c43.024 0 78.987 23.569 89.456 62.915l101.548 375.047c7.131 26.714 1.942 56.23-14.256 77.3zM965.279 620.427l-101.569-375.871c-5.099-19.154-22.675-27.346-44.805-27.346h-589.841l-60.659 461.596h752.046c15.997 0 30.052-9.28 38.558-20.356 7.492-9.747 9.701-25.14 6.273-38.022zM389.319-36.268h-92.411c-12.758 0-23.102-10.578-23.102-23.346s10.343-23.346 23.102-23.346h92.411c12.772 0 23.103 10.578 23.103 23.346s-10.332 23.346-23.102 23.346zM805.165-36.268h-92.411c-12.771 0-23.102-10.578-23.102-23.346s10.332-23.346 23.102-23.346h92.411c12.771 0 23.102 10.578 23.102 23.346s-10.332 23.346-23.102 23.346z"  horiz-adv-x="1024" />

    
    <glyph glyph-name="shouyexian" unicode="&#59005;" d="M1097.950826 455.092529l-413.662431 381.917092c-7.176149 6.689631-16.906521 10.703409-27.123411 10.703409s-19.460744-3.52726-27.123411-10.703409l-413.175912-381.917092c-12.284594-11.311557-15.811854-28.218078-10.21689-43.543414 6.203112-15.325336 20.433781-25.055707 36.853783-25.055707h84.532605v-342.022568c0-22.014966 17.879558-39.894524 39.894524-39.894525H561.92897c22.014966 0 39.894524 17.879558 39.894524 39.894525V259.025537H712.749733v-198.134695c0-1.337926 0.12163-2.554223 0.243259-3.770519V44.592469c0-22.014966 17.879558-39.894524 39.894524-39.894524h193.999288c22.014966 0 39.894524 17.879558 39.894524 39.894524V386.493408h84.532605c16.420002 0 31.258819 9.730372 36.853783 25.055707 6.203112 15.446965 2.067704 32.353486-10.21689 43.543414z m-33.083265-33.569783c-1.946074-4.865186-6.324742-7.784297-11.798075-7.784297h-106.304312v-352.847607c0-6.81126-5.838223-12.771113-12.771113-12.771113H751.67122c-6.203112 0-11.676446 4.865186-12.527854 10.946668V285.66243h-0.121629v6.081483H575.308231v-6.081483h-0.121629v-226.231144c-0.729778-6.203112-6.324742-11.311557-12.649484-11.311557H380.335907c-6.81126 0-12.771113 5.838223-12.771113 12.771113V413.738449h-105.817793c-5.351704 0-9.852001 3.40563-11.798076 7.784297-1.946074 4.865186-0.486519 10.33852 3.40563 13.74415L649.259057 800.763986c4.865186 4.378667 12.284594 4.378667 17.14978 0l395.904502-365.618719c3.52726-3.284 4.500297-9.243853 2.554222-13.622521z"  horiz-adv-x="1448" />

    
    <glyph glyph-name="wode5" unicode="&#58887;" d="M972.8-90.763636c-25.6 176.872727-151.272727 318.836364-318.836364 372.363636 111.709091 51.2 188.509091 162.909091 188.509091 290.909091C842.472727 751.709091 695.854545 896 514.327273 896S186.181818 751.709091 186.181818 572.509091c0-128 76.8-239.709091 188.509091-290.909091-167.563636-53.527273-293.236364-195.490909-318.836364-370.036364-2.327273-2.327273-2.327273-6.981818-2.327272-11.636363 0-16.290909 13.963636-27.927273 30.254545-27.927273 16.290909 0 30.254545 13.963636 30.254546 27.927273v2.327272c27.927273 195.490909 197.818182 344.436364 402.618181 344.436364s374.690909-148.945455 402.618182-342.109091v-2.327273c0-16.290909 13.963636-27.927273 30.254546-27.927272 16.290909 0 30.254545 13.963636 30.254545 27.927272-4.654545 2.327273-6.981818 4.654545-6.981818 6.981819M514.327273 307.2c-148.945455 0-269.963636 118.690909-269.963637 267.636364 0 146.618182 121.018182 267.636364 269.963637 267.636363 148.945455 0 269.963636-118.690909 269.963636-267.636363s-121.018182-267.636364-269.963636-267.636364m0 0"  horiz-adv-x="1024" />

    
    <glyph glyph-name="gouwuche5" unicode="&#58916;" d="M802.3 94.5c-40.6 0-73.5-32.9-73.5-73.5s32.9-73.5 73.5-73.5 73.5 32.9 73.5 73.5-32.9 73.5-73.5 73.5z m0-110.2c-20.3 0-36.7 16.4-36.7 36.7s16.4 36.7 36.7 36.7c20.3 0 36.7-16.4 36.7-36.7s-16.4-36.7-36.7-36.7zM416.6 94.5c-40.6 0-73.5-32.9-73.5-73.5s32.9-73.5 73.5-73.5 73.5 32.9 73.5 73.5-32.9 73.5-73.5 73.5z m0-110.2c-20.3 0-36.7 16.4-36.7 36.7s16.4 36.7 36.7 36.7 36.7-16.4 36.7-36.7-16.4-36.7-36.7-36.7z m490.7 309.9s41.9 240 41.9 241.1c0 40.6-32.9 73.5-73.5 73.5H258.8l-11 57.7c-9.1 30.3-36.8 52.5-70.1 52.5h-55.1c-10.1 0-18.4-8.2-18.4-18.4s8.2-18.4 18.4-18.4h55.1c17.6 0 32.3-12.4 35.9-28.9l80.8-458.5c0.3-2.6 2.1-10.2 2.1-10.2 8.3-29 33.8-51 64.8-53.4h514.3c10.1 0 18.4 8.2 18.4 18.4s-8.2 18.4-18.4 18.4H367c-16.7 0-30.6 11.2-35.1 26.5l-8.3 47h513.6c33.3 0 61.2 22.3 70.1 52.7z m-590.2-16l-51.8 293.9h610.5c20.3 0 36.7-16.4 36.7-36.7 0-6.7-40.4-231.3-40.4-231.3-4.7-15-18.4-25.9-34.9-25.9H317.1z"  horiz-adv-x="1024" />

    
    <glyph glyph-name="gouwuche6" unicode="&#58906;" d="M321.828571-103.619048c-63.390476 0-117.028571 53.638095-117.028571 117.028572s53.638095 117.028571 117.028571 117.028571c63.390476 0 117.028571-53.638095 117.028572-117.028571s-53.638095-117.028571-117.028572-117.028572z m0 185.295238c-39.009524 0-68.266667-29.257143-68.266666-68.266666 0-39.009524 29.257143-68.266667 68.266666-68.266667S390.095238-25.6 390.095238 13.409524c-4.87619 39.009524-34.133333 68.266667-68.266667 68.266666zM833.828571-103.619048c-63.390476 0-117.028571 53.638095-117.028571 117.028572s53.638095 117.028571 117.028571 117.028571 117.028571-53.638095 117.028572-117.028571-53.638095-117.028571-117.028572-117.028572z m0 185.295238c-39.009524 0-68.266667-29.257143-68.266666-68.266666 0-39.009524 29.257143-68.266667 68.266666-68.266667s68.266667 29.257143 68.266667 68.266667c0 39.009524-29.257143 68.266667-68.266667 68.266666zM887.466667 203.580952H238.933333L151.161905 822.857143H48.761905v48.761905h141.409524l24.380952-156.038096h741.180952l-68.266666-512z m-604.647619 48.761905h560.761904l53.638096 414.476191H219.428571l63.390477-414.476191z"  horiz-adv-x="1024" />

    
    <glyph glyph-name="fenlei6" unicode="&#58910;" d="M372.053333 896H85.333333C37.546667 896 0 858.453333 0 810.666667v-286.72c0-47.786667 37.546667-85.333333 85.333333-85.333334h286.72c47.786667 0 85.333333 37.546667 85.333334 85.333334V810.666667c3.413333 47.786667-37.546667 85.333333-85.333334 85.333333z m58.026667-361.813333c0-37.546667-30.72-64.853333-64.853333-64.853334H95.573333c-37.546667 0-64.853333 30.72-64.853333 64.853334V800.426667C30.72 837.973333 61.44 865.28 95.573333 865.28h266.24c37.546667 0 64.853333-30.72 64.853334-64.853333v-266.24h3.413333zM372.053333 336.213333H85.333333c-47.786667 0-85.333333-37.546667-85.333333-85.333333v-286.72c0-47.786667 37.546667-85.333333 85.333333-85.333333h286.72c47.786667 0 85.333333 37.546667 85.333334 85.333333v286.72c3.413333 47.786667-37.546667 85.333333-85.333334 85.333333zM430.08-25.6c0-37.546667-30.72-64.853333-64.853333-64.853333H95.573333C58.026667-90.453333 30.72-59.733333 30.72-25.6v266.24c0 37.546667 30.72 64.853333 64.853333 64.853333h266.24c37.546667 0 64.853333-30.72 64.853334-64.853333V-25.6h3.413333zM925.013333 896h-286.72c-47.786667 0-85.333333-37.546667-85.333333-85.333333v-286.72c0-47.786667 37.546667-85.333333 85.333333-85.333334h286.72c47.786667 0 85.333333 37.546667 85.333334 85.333334V810.666667c0 47.786667-37.546667 85.333333-85.333334 85.333333z m54.613334-361.813333c0-37.546667-30.72-64.853333-64.853334-64.853334H648.533333c-37.546667 0-64.853333 30.72-64.853333 64.853334V800.426667c0 37.546667 30.72 64.853333 64.853333 64.853333h266.24c37.546667 0 64.853333-30.72 64.853334-64.853333v-266.24zM768 356.693333c-133.12 0-238.933333-109.226667-238.933333-238.933333 0-133.12 109.226667-238.933333 238.933333-238.933333 133.12 0 238.933333 109.226667 238.933333 238.933333s-109.226667 238.933333-238.933333 238.933333m0-450.56c-116.053333 0-208.213333 95.573333-208.213333 208.213334 0 116.053333 95.573333 208.213333 208.213333 208.213333 116.053333 0 208.213333-95.573333 208.213333-208.213333S880.64-93.866667 768-93.866667M1010.346667-128c-3.413333 0-6.826667 0-10.24 3.413333L921.6-52.906667c-6.826667 6.826667-6.826667 13.653333 0 20.48s13.653333 6.826667 20.48 0l78.506667-71.68c6.826667-6.826667 6.826667-13.653333 0-20.48-3.413333-3.413333-6.826667-3.413333-10.24-3.413333"  horiz-adv-x="1025" />

    
    <glyph glyph-name="wode6" unicode="&#58888;" d="M652.8 342.4c80 48 134.4 136 134.4 236.8 0 152-123.2 275.2-275.2 275.2s-275.2-123.2-275.2-275.2c0-100.8 54.4-188.8 134.4-236.8-155.2-57.6-267.2-208-267.2-382.4 0-17.6 14.4-32 32-32s32 14.4 32 32c0 188.8 153.6 342.4 342.4 344h3.2c188.8-1.6 342.4-155.2 342.4-344 0-17.6 14.4-32 32-32s32 14.4 32 32c0 176-110.4 324.8-267.2 382.4z m-352 236.8c0 116.8 94.4 211.2 211.2 211.2 116.8 0 211.2-94.4 211.2-211.2 0-116.8-94.4-211.2-209.6-211.2H512h-1.6c-115.2 1.6-209.6 96-209.6 211.2z"  horiz-adv-x="1024" />

    
    <glyph glyph-name="wode7" unicode="&#59094;" d="M970.242-86.161c-24.08 173.195-146.678 314.695-309.488 366.166 107.637 51.02 182.105 160.703 182.105 287.635 0 175.723-142.403 318.186-318.187 318.186-175.753 0-318.186-142.463-318.186-318.186 0-127.082 74.557-236.796 182.285-287.635-161.938-51.471-284.114-192.158-308.765-364.24a27.301 27.301 0 0 1-2.168-10.745c0-15.622 12.673-28.294 28.385-28.294 15.622 0 28.324 12.702 28.324 28.294v1.174C161.245 98.02 325.862 245.6 524.973 245.6c198.419 0 362.494-146.526 390.156-337.33-0.12-1.023-0.241-2.076-0.241-3.25 0-15.622 12.702-28.294 28.444-28.294 15.622 0 28.234 12.702 28.234 28.294 0 3.16-0.452 6.02-1.324 8.819z m-445.57 391.058C379.5 304.897 261.9 422.558 261.9 567.64c0 145.262 117.6 262.863 262.772 262.863 145.262 0 262.863-117.631 262.863-262.863 0-145.082-117.6-262.743-262.863-262.743z m0 0"  horiz-adv-x="1024" />

    
    <glyph glyph-name="shouye4" unicode="&#58935;" d="M1082.389787 386.875915L545.595915 895.782128 9.433872 388.553532c-10.436085-10.022128-11.547234-26.732936-1.089361-37.299745 9.869617-10.588596 26.318979-11.699745 36.755063-1.111149L545.617702 823.404936l500.518128-474.961702c4.945702-5.011064 11.547234-7.211574 17.582298-7.211574 7.124426 0 13.725957 2.766979 18.649872 8.34451a25.687149 25.687149 0 0 1 0 37.299745z m-163.578553-10.566809c-14.270638 0-26.340766-12.266213-26.340766-26.732936v-404.218553h-208.002723v281.708936H406.76766v-280.619574H198.764936V350.709106c0 14.488511-12.070128 26.732936-26.340766 26.732937s-26.362553-12.244426-26.362553-26.732937V-106.430638h312.298213V174.755404h173.426383v-280.619574h312.276425V350.665532c0.544681 13.922043-10.980766 25.621787-25.251404 25.621787z"  horiz-adv-x="1111" />

    
    <glyph glyph-name="gouwuche7" unicode="&#58962;" d="M381.952 621.056l461.312-81.408c6.144-1.024 10.752-7.168 9.728-13.312l-29.696-189.952c-1.024-8.192-11.264-16.384-19.456-16.384H440.832c-8.192 0-17.408 8.192-18.432 15.872l-40.448 285.184m-6.656 44.032c-24.064 0-39.936-18.432-36.352-44.032l40.448-290.304c4.096-29.184 31.232-52.736 60.928-52.736h363.52c29.184 0 57.344 23.552 61.952 52.736l29.696 189.952c4.608 28.672-15.36 56.832-44.544 61.952L384.512 664.064c-3.072 0.512-6.144 1.024-9.216 1.024zM790.528 246.272H347.648L288.768 680.448c-1.536 13.312-12.288 23.04-24.064 23.04-1.536 0-2.56 0.512-4.096 0.512H154.624c-14.336 0-26.624-10.752-26.624-23.552 0-12.8 11.776-23.552 26.624-23.552h89.6l58.88-434.688c2.048-13.824 13.312-24.064 25.6-23.04h462.848c14.336 0 26.624 10.752 26.624 23.552-1.024 12.8-12.8 23.552-27.648 23.552zM426.496 168.96c-29.184 0-53.248-23.552-53.248-52.736 0-29.184 23.552-52.736 53.248-52.736 29.184 0 53.248 23.552 53.248 52.736-0.512 29.184-24.064 52.736-53.248 52.736z m0-78.848c-14.848 0-26.624 11.776-26.624 26.624 0 14.336 11.776 26.624 26.624 26.624 14.848 0 26.624-11.776 26.624-26.624 0-14.848-11.776-26.624-26.624-26.624zM714.24 168.96c-29.184 0-53.248-23.552-53.248-52.736 0-29.184 23.552-52.736 53.248-52.736 29.184 0 53.248 23.552 53.248 52.736-0.512 29.184-24.064 52.736-53.248 52.736z m0-78.848c-14.848 0-26.624 11.776-26.624 26.624 0 14.336 11.776 26.624 26.624 26.624 14.848 0 26.624-11.776 26.624-26.624 0-14.848-11.776-26.624-26.624-26.624z"  horiz-adv-x="1024" />

    


  </font>
</defs>
</svg>
